<svg width="87" height="86" viewBox="0 0 87 86" fill="none" xmlns="http://www.w3.org/2000/svg">
<path d="M59.2669 75.9667H56.4003V68.8V14.3333C56.4003 14.0467 56.2569 13.6167 56.1136 13.4733L51.9569 1.00333C51.8136 0.43 51.2403 0 50.6669 0C50.0936 0 49.5203 0.43 49.3769 1.00333L45.2203 13.4733C45.0769 13.76 44.9336 14.0467 44.9336 14.3333V68.8V84.5667C44.9336 85.4267 45.5069 86 46.3669 86H54.9669C55.8269 86 56.4003 85.4267 56.4003 84.5667V78.8333H60.7003C61.5603 78.8333 62.1336 78.26 62.1336 77.4V34.4H59.2669V75.9667ZM47.8003 15.7667H53.5336V67.3667H47.8003V15.7667ZM50.6669 6.02L52.9603 12.9H48.3736L50.6669 6.02ZM53.5336 83.1333H47.8003V70.2333H53.5336V83.1333Z" fill="#CDA274"/>
<path d="M85.0662 0H69.2995C68.4395 0 67.8662 0.573333 67.8662 1.43333V84.5667C67.8662 85.4267 68.4395 86 69.2995 86H85.0662C85.9262 86 86.4995 85.4267 86.4995 84.5667V1.43333C86.4995 0.573333 85.9262 0 85.0662 0ZM83.6329 83.1333H70.7329V73.1H77.8995V70.2333H70.7329V58.7667H77.8995V55.9H70.7329V44.4333H77.8995V41.5667H70.7329V30.1H77.8995V27.2333H70.7329V15.7667H77.8995V12.9H70.7329V2.86667H83.6329V83.1333Z" fill="#CDA274"/>
<path d="M20.5667 14.3333C9.53 14.3333 0.5 23.3633 0.5 34.3999C0.5 42.1399 4.94333 49.1632 11.9667 52.4599V63.0666V70.2332C11.9667 71.0933 12.54 71.6666 13.4 71.6666H19.1333V75.9666H22V71.6666H27.7333C28.5933 71.6666 29.1667 71.0933 29.1667 70.2332V63.0666V52.4599C36.19 49.1632 40.6333 42.1399 40.6333 34.3999C40.6333 23.3633 31.6033 14.3333 20.5667 14.3333ZM26.3 68.7999H14.8333V64.4999H26.3V68.7999ZM27.16 50.3099C26.5867 50.4532 26.3 51.0266 26.3 51.5999V61.6333H14.8333V58.7666H22V55.8999H14.8333V51.5999C14.8333 51.0266 14.5467 50.4532 13.9733 50.3099C7.52333 47.5866 3.36667 41.2799 3.36667 34.3999C3.36667 24.9399 11.1067 17.1999 20.5667 17.1999C30.0267 17.1999 37.7667 24.9399 37.7667 34.3999C37.7667 41.2799 33.61 47.5866 27.16 50.3099Z" fill="#CDA274"/>
<path d="M23.8637 26.23L20.567 29.5266L17.2703 26.23L15.2637 28.2366L19.1337 32.1066V47.3H22.0003V32.1066L25.8703 28.2366L23.8637 26.23Z" fill="#CDA274"/>
</svg>
