<svg width="93" height="92" viewBox="0 0 93 92" fill="none" xmlns="http://www.w3.org/2000/svg">
<path d="M92.5 89.0322H89.5322V92H92.5V89.0322Z" fill="#CDA274"/>
<path d="M71.7258 14.8387V2.96774H47.9839V0H45.0161V2.96774H21.2742V35.0305L12.371 29.8907V29.6774H12.0037L11.6828 29.4919L11.5752 29.6774H0.5V50.4516C0.5 53.7254 3.16169 56.3871 6.43548 56.3871H21.2742V62.3226H34.3026L28.9606 89.0323H0.5V92H86.5645V89.0323H64.0394L58.6974 62.3226H71.7258V38.5806H83.5968V35.6129H81.0445L83.7303 24.8734L78.2289 17.9975C83.799 18.9731 88.0484 23.8328 88.0484 29.6774H91.0161C91.0161 24.8215 88.6605 20.5145 85.0417 17.8065H92.5V14.8387H71.7258ZM9.40323 50.4516C9.40323 52.0876 8.07145 53.4194 6.43548 53.4194C4.79952 53.4194 3.46774 52.0876 3.46774 50.4516V32.6452H9.40323V50.4516ZM20.3709 38.9794L23.3386 44.1173L13.7491 49.6559L19.6827 39.3764L20.3709 38.9794ZM12.371 34.2366L12.7698 33.5448L17.9077 36.5125L12.371 46.1057V34.2366ZM13.163 53.4194L23.4444 47.4839H24.2419V53.4194H13.163ZM45.0161 89.0323H31.9877L37.3297 62.3226H45.0161V89.0323ZM61.0123 89.0323H47.9839V62.3226H55.6703L61.0123 89.0323ZM68.6245 24.8734L71.3103 35.6129H68.7581V59.3548H24.2419V56.3871H27.2097V45.31L27.3933 45.2024L27.2097 44.8852V44.5161H26.9964L24.2419 39.7455V5.93548H68.7581V14.8387H59.8548V17.8065H67.3131C63.6944 20.5145 61.3387 24.8215 61.3387 29.6774H64.3065C64.3065 23.8328 68.5559 18.9731 74.126 17.9956L68.6245 24.8734ZM80.4955 25.5801L77.9877 35.6129H74.3671L71.8594 25.5782L74.6936 22.0355V28.1935H77.6613V22.0373L80.4955 25.5801Z" fill="#CDA274"/>
<path d="M33.1451 11.8709H30.1774V14.8387H33.1451V11.8709Z" fill="#CDA274"/>
<path d="M62.8225 50.4516H59.8548V53.4193H62.8225V50.4516Z" fill="#CDA274"/>
<path d="M59.8549 32.6451C59.8549 25.2814 53.8637 19.2903 46.5 19.2903C44.0999 19.2903 41.8499 19.9357 39.9005 21.0486L35.8291 15.4507L33.429 17.1961L37.5059 22.8015C34.8331 25.2443 33.1452 28.7462 33.1452 32.6451C33.1452 40.0088 39.1363 45.9999 46.5 45.9999C48.9002 45.9999 51.1501 45.3545 53.0995 44.2416L57.1709 49.8395L59.5711 48.0941L55.4941 42.4887C58.167 40.0459 59.8549 36.544 59.8549 32.6451ZM46.5 43.0322C40.7741 43.0322 36.1129 38.371 36.1129 32.6451C36.1129 29.733 37.3223 27.0991 39.2606 25.2128L51.343 41.8284C49.8944 42.5926 48.2491 43.0322 46.5 43.0322ZM41.657 23.4636C43.1057 22.6976 44.7509 22.258 46.5 22.258C52.2259 22.258 56.8871 26.9192 56.8871 32.6451C56.8871 35.5572 55.6778 38.1911 53.7395 40.0774L41.657 23.4636Z" fill="#CDA274"/>
</svg>
